<svg width="1000" height="1000" viewBox="0 0 1000 1000" fill="none" xmlns="http://www.w3.org/2000/svg">
<rect width="1000" height="1000" fill="#0F172B"/>
<path d="M296.282 773V227.545H521.602C562.44 227.545 597.685 235.536 627.337 251.516C657.166 267.318 680.16 289.424 696.317 317.833C712.475 346.065 720.554 378.913 720.554 416.377C720.554 454.019 712.298 486.956 695.785 515.188C679.45 543.241 656.101 564.992 625.739 580.44C595.376 595.887 559.332 603.611 517.607 603.611H378.58V499.74H493.104C512.99 499.74 529.592 496.278 542.908 489.353C556.403 482.428 566.612 472.751 573.537 460.322C580.462 447.716 583.924 433.067 583.924 416.377C583.924 399.509 580.462 384.95 573.537 372.698C566.612 360.269 556.403 350.681 542.908 343.934C529.414 337.187 512.813 333.813 493.104 333.813H428.118V773H296.282Z" fill="#E2E8F0"/>
</svg>
