<svg width="1440" height="1024" viewBox="0 0 1440 1024" fill="none" xmlns="http://www.w3.org/2000/svg">
<g clip-path="url(#clip0_3_2)">
<rect width="1440" height="1024" fill="#0F172B"/>
<path d="M141.984 507V405.182H182.155C189.877 405.182 196.456 406.657 201.892 409.607C207.327 412.523 211.47 416.583 214.321 421.787C217.204 426.957 218.646 432.923 218.646 439.685C218.646 446.446 217.188 452.412 214.271 457.582C211.354 462.753 207.129 466.78 201.594 469.663C196.092 472.547 189.43 473.989 181.608 473.989H156.004V456.737H178.128C182.271 456.737 185.684 456.025 188.369 454.599C191.087 453.141 193.109 451.136 194.434 448.584C195.793 445.999 196.473 443.032 196.473 439.685C196.473 436.304 195.793 433.354 194.434 430.835C193.109 428.283 191.087 426.311 188.369 424.919C185.651 423.494 182.204 422.781 178.028 422.781H163.511V507H141.984ZM251.956 508.442C247.084 508.442 242.742 507.597 238.93 505.906C235.119 504.183 232.103 501.647 229.882 498.3C227.694 494.919 226.601 490.71 226.601 485.672C226.601 481.429 227.38 477.866 228.937 474.983C230.495 472.099 232.616 469.779 235.301 468.023C237.986 466.266 241.035 464.94 244.449 464.045C247.896 463.151 251.508 462.521 255.287 462.156C259.728 461.692 263.308 461.261 266.025 460.864C268.743 460.433 270.715 459.803 271.942 458.974C273.168 458.146 273.781 456.92 273.781 455.295V454.997C273.781 451.848 272.787 449.412 270.798 447.689C268.843 445.965 266.059 445.104 262.446 445.104C258.634 445.104 255.602 445.949 253.348 447.639C251.094 449.296 249.603 451.384 248.873 453.903L229.285 452.312C230.28 447.672 232.235 443.662 235.152 440.281C238.068 436.867 241.83 434.249 246.437 432.426C251.077 430.57 256.447 429.642 262.545 429.642C266.788 429.642 270.848 430.139 274.726 431.134C278.637 432.128 282.1 433.669 285.116 435.757C288.166 437.845 290.568 440.53 292.325 443.811C294.082 447.059 294.96 450.954 294.96 455.494V507H274.875V496.411H274.278C273.052 498.797 271.411 500.902 269.356 502.724C267.301 504.514 264.832 505.923 261.949 506.95C259.065 507.945 255.734 508.442 251.956 508.442ZM258.021 493.825C261.137 493.825 263.888 493.212 266.274 491.986C268.66 490.726 270.533 489.036 271.892 486.915C273.251 484.794 273.93 482.391 273.93 479.706V471.602C273.267 472.033 272.356 472.431 271.196 472.795C270.069 473.127 268.793 473.442 267.368 473.74C265.943 474.005 264.517 474.254 263.092 474.486C261.667 474.685 260.374 474.867 259.214 475.033C256.729 475.397 254.558 475.977 252.702 476.773C250.845 477.568 249.404 478.645 248.376 480.004C247.349 481.33 246.835 482.987 246.835 484.976C246.835 487.859 247.879 490.063 249.967 491.588C252.088 493.08 254.773 493.825 258.021 493.825ZM311.789 507V405.182H332.968V443.463H333.614C334.542 441.408 335.885 439.32 337.641 437.199C339.431 435.045 341.751 433.255 344.601 431.83C347.485 430.371 351.064 429.642 355.34 429.642C360.908 429.642 366.046 431.1 370.752 434.017C375.458 436.901 379.22 441.259 382.037 447.092C384.855 452.893 386.263 460.168 386.263 468.918C386.263 477.436 384.888 484.628 382.137 490.494C379.419 496.328 375.707 500.752 371.001 503.768C366.327 506.751 361.09 508.243 355.29 508.243C351.18 508.243 347.684 507.563 344.8 506.205C341.95 504.846 339.613 503.139 337.79 501.084C335.967 498.996 334.575 496.891 333.614 494.77H332.67V507H311.789ZM332.52 468.818C332.52 473.359 333.15 477.32 334.41 480.7C335.669 484.081 337.492 486.716 339.878 488.605C342.265 490.461 345.165 491.389 348.579 491.389C352.026 491.389 354.942 490.445 357.329 488.555C359.715 486.633 361.521 483.982 362.748 480.601C364.007 477.187 364.637 473.259 364.637 468.818C364.637 464.41 364.024 460.532 362.797 457.185C361.571 453.837 359.765 451.219 357.378 449.33C354.992 447.44 352.059 446.496 348.579 446.496C345.132 446.496 342.215 447.407 339.829 449.23C337.475 451.053 335.669 453.638 334.41 456.986C333.15 460.333 332.52 464.277 332.52 468.818ZM421.574 405.182V507H400.395V405.182H421.574ZM473.042 508.491C465.32 508.491 458.641 506.851 453.007 503.57C447.406 500.255 443.08 495.648 440.031 489.749C436.982 483.816 435.457 476.938 435.457 469.116C435.457 461.228 436.982 454.334 440.031 448.435C443.08 442.502 447.406 437.895 453.007 434.614C458.641 431.299 465.32 429.642 473.042 429.642C480.765 429.642 487.427 431.299 493.028 434.614C498.663 437.895 503.005 442.502 506.054 448.435C509.103 454.334 510.628 461.228 510.628 469.116C510.628 476.938 509.103 483.816 506.054 489.749C503.005 495.648 498.663 500.255 493.028 503.57C487.427 506.851 480.765 508.491 473.042 508.491ZM473.142 492.085C476.655 492.085 479.588 491.091 481.942 489.102C484.295 487.08 486.068 484.33 487.261 480.849C488.488 477.369 489.101 473.409 489.101 468.967C489.101 464.526 488.488 460.565 487.261 457.085C486.068 453.605 484.295 450.854 481.942 448.832C479.588 446.811 476.655 445.8 473.142 445.8C469.595 445.8 466.613 446.811 464.193 448.832C461.807 450.854 460 453.605 458.774 457.085C457.581 460.565 456.984 464.526 456.984 468.967C456.984 473.409 457.581 477.369 458.774 480.849C460 484.33 461.807 487.08 464.193 489.102C466.613 491.091 469.595 492.085 473.142 492.085ZM593.293 507H557.199V405.182H593.591C603.833 405.182 612.649 407.22 620.04 411.297C627.431 415.34 633.115 421.157 637.093 428.747C641.103 436.337 643.108 445.419 643.108 455.991C643.108 466.598 641.103 475.712 637.093 483.335C633.115 490.958 627.398 496.808 619.941 500.885C612.516 504.962 603.634 507 593.293 507ZM578.726 488.555H592.398C598.762 488.555 604.114 487.429 608.456 485.175C612.831 482.888 616.112 479.358 618.3 474.585C620.521 469.779 621.631 463.581 621.631 455.991C621.631 448.468 620.521 442.32 618.3 437.547C616.112 432.774 612.848 429.261 608.506 427.007C604.164 424.753 598.811 423.626 592.448 423.626H578.726V488.555ZM658.657 507V430.636H679.836V507H658.657ZM661.689 420.793L672.229 398.172H691.817L676.654 420.793H661.689ZM718.577 508.442C713.705 508.442 709.363 507.597 705.551 505.906C701.74 504.183 698.724 501.647 696.503 498.3C694.316 494.919 693.222 490.71 693.222 485.672C693.222 481.429 694.001 477.866 695.558 474.983C697.116 472.099 699.237 469.779 701.922 468.023C704.607 466.266 707.656 464.94 711.07 464.045C714.517 463.151 718.129 462.521 721.908 462.156C726.349 461.692 729.929 461.261 732.646 460.864C735.364 460.433 737.336 459.803 738.563 458.974C739.789 458.146 740.402 456.92 740.402 455.295V454.997C740.402 451.848 739.408 449.412 737.419 447.689C735.464 445.965 732.68 445.104 729.067 445.104C725.255 445.104 722.223 445.949 719.969 447.639C717.715 449.296 716.224 451.384 715.494 453.903L695.906 452.312C696.901 447.672 698.856 443.662 701.773 440.281C704.69 436.867 708.451 434.249 713.058 432.426C717.699 430.57 723.068 429.642 729.166 429.642C733.409 429.642 737.469 430.139 741.347 431.134C745.258 432.128 748.721 433.669 751.737 435.757C754.787 437.845 757.19 440.53 758.946 443.811C760.703 447.059 761.581 450.954 761.581 455.494V507H741.496V496.411H740.899C739.673 498.797 738.032 500.902 735.977 502.724C733.923 504.514 731.453 505.923 728.57 506.95C725.686 507.945 722.355 508.442 718.577 508.442ZM724.642 493.825C727.758 493.825 730.509 493.212 732.895 491.986C735.281 490.726 737.154 489.036 738.513 486.915C739.872 484.794 740.551 482.391 740.551 479.706V471.602C739.888 472.033 738.977 472.431 737.817 472.795C736.69 473.127 735.414 473.442 733.989 473.74C732.564 474.005 731.138 474.254 729.713 474.486C728.288 474.685 726.995 474.867 725.835 475.033C723.35 475.397 721.179 475.977 719.323 476.773C717.467 477.568 716.025 478.645 714.997 480.004C713.97 481.33 713.456 482.987 713.456 484.976C713.456 487.859 714.5 490.063 716.588 491.588C718.709 493.08 721.394 493.825 724.642 493.825ZM777.615 507V494.372L815.001 448.087V447.54H778.907V430.636H840.505V444.408L805.406 489.55V490.097H841.798V507H777.615ZM905.571 456.787V473.591H859.136V456.787H905.571ZM964.782 405.182H986.061V476.176C986.061 482.739 984.586 488.439 981.636 493.278C978.72 498.117 974.659 501.846 969.456 504.464C964.252 507.083 958.203 508.392 951.309 508.392C945.178 508.392 939.61 507.315 934.605 505.161C929.633 502.973 925.689 499.659 922.773 495.217C919.856 490.743 918.414 485.125 918.447 478.364H939.875C939.941 481.048 940.488 483.352 941.515 485.274C942.576 487.163 944.018 488.622 945.841 489.649C947.697 490.643 949.884 491.141 952.403 491.141C955.055 491.141 957.292 490.577 959.115 489.45C960.971 488.29 962.38 486.6 963.341 484.379C964.302 482.159 964.782 479.424 964.782 476.176V405.182ZM1037.96 508.491C1030.24 508.491 1023.56 506.851 1017.93 503.57C1012.33 500.255 1008 495.648 1004.95 489.749C1001.9 483.816 1000.38 476.938 1000.38 469.116C1000.38 461.228 1001.9 454.334 1004.95 448.435C1008 442.502 1012.33 437.895 1017.93 434.614C1023.56 431.299 1030.24 429.642 1037.96 429.642C1045.69 429.642 1052.35 431.299 1057.95 434.614C1063.58 437.895 1067.93 442.502 1070.98 448.435C1074.02 454.334 1075.55 461.228 1075.55 469.116C1075.55 476.938 1074.02 483.816 1070.98 489.749C1067.93 495.648 1063.58 500.255 1057.95 503.57C1052.35 506.851 1045.69 508.491 1037.96 508.491ZM1038.06 492.085C1041.58 492.085 1044.51 491.091 1046.86 489.102C1049.22 487.08 1050.99 484.33 1052.18 480.849C1053.41 477.369 1054.02 473.409 1054.02 468.967C1054.02 464.526 1053.41 460.565 1052.18 457.085C1050.99 453.605 1049.22 450.854 1046.86 448.832C1044.51 446.811 1041.58 445.8 1038.06 445.8C1034.52 445.8 1031.53 446.811 1029.11 448.832C1026.73 450.854 1024.92 453.605 1023.7 457.085C1022.5 460.565 1021.91 464.526 1021.91 468.967C1021.91 473.409 1022.5 477.369 1023.7 480.849C1024.92 484.33 1026.73 487.08 1029.11 489.102C1031.53 491.091 1034.52 492.085 1038.06 492.085ZM1089.32 507V430.636H1109.85V443.96H1110.65C1112.04 439.221 1114.38 435.641 1117.66 433.222C1120.94 430.769 1124.72 429.543 1128.99 429.543C1130.05 429.543 1131.2 429.609 1132.42 429.741C1133.65 429.874 1134.73 430.056 1135.66 430.288V449.081C1134.66 448.783 1133.29 448.518 1131.53 448.286C1129.77 448.054 1128.17 447.938 1126.71 447.938C1123.59 447.938 1120.81 448.617 1118.35 449.976C1115.94 451.302 1114.01 453.158 1112.59 455.544C1111.2 457.93 1110.5 460.681 1110.5 463.797V507H1089.32ZM1177.45 537.227C1170.59 537.227 1164.71 536.283 1159.81 534.393C1154.93 532.537 1151.06 530.002 1148.17 526.787C1145.29 523.572 1143.42 519.959 1142.55 515.949L1162.14 513.314C1162.74 514.839 1163.68 516.264 1164.98 517.589C1166.27 518.915 1167.98 519.976 1170.1 520.771C1172.25 521.6 1174.87 522.014 1177.95 522.014C1182.56 522.014 1186.35 520.887 1189.34 518.634C1192.35 516.413 1193.86 512.684 1193.86 507.447V493.477H1192.97C1192.04 495.598 1190.65 497.604 1188.79 499.493C1186.93 501.382 1184.55 502.923 1181.63 504.116C1178.71 505.31 1175.23 505.906 1171.19 505.906C1165.46 505.906 1160.24 504.58 1155.53 501.929C1150.86 499.244 1147.13 495.151 1144.34 489.649C1141.59 484.114 1140.22 477.121 1140.22 468.669C1140.22 460.018 1141.63 452.793 1144.44 446.993C1147.26 441.193 1151.01 436.851 1155.68 433.967C1160.39 431.084 1165.54 429.642 1171.14 429.642C1175.42 429.642 1179 430.371 1181.88 431.83C1184.76 433.255 1187.08 435.045 1188.84 437.199C1190.63 439.32 1192 441.408 1192.97 443.463H1193.76V430.636H1214.79V507.746C1214.79 514.242 1213.2 519.678 1210.02 524.053C1206.84 528.428 1202.43 531.709 1196.79 533.896C1191.19 536.117 1184.75 537.227 1177.45 537.227ZM1177.9 489.997C1181.32 489.997 1184.2 489.152 1186.55 487.462C1188.94 485.738 1190.76 483.286 1192.02 480.104C1193.31 476.889 1193.96 473.044 1193.96 468.57C1193.96 464.095 1193.33 460.217 1192.07 456.936C1190.81 453.622 1188.99 451.053 1186.6 449.23C1184.22 447.407 1181.32 446.496 1177.9 446.496C1174.42 446.496 1171.49 447.44 1169.1 449.33C1166.72 451.186 1164.91 453.771 1163.68 457.085C1162.46 460.4 1161.84 464.228 1161.84 468.57C1161.84 472.978 1162.46 476.789 1163.68 480.004C1164.94 483.186 1166.75 485.655 1169.1 487.412C1171.49 489.135 1174.42 489.997 1177.9 489.997ZM1266.45 508.491C1258.59 508.491 1251.83 506.901 1246.16 503.719C1240.53 500.504 1236.19 495.963 1233.14 490.097C1230.09 484.197 1228.56 477.22 1228.56 469.166C1228.56 461.311 1230.09 454.417 1233.14 448.484C1236.19 442.552 1240.48 437.928 1246.01 434.614C1251.58 431.299 1258.11 429.642 1265.6 429.642C1270.64 429.642 1275.33 430.454 1279.67 432.078C1284.05 433.669 1287.86 436.072 1291.11 439.287C1294.39 442.502 1296.94 446.545 1298.76 451.418C1300.58 456.257 1301.5 461.924 1301.5 468.42V474.237H1237.01V461.112H1281.56C1281.56 458.063 1280.9 455.362 1279.57 453.009C1278.25 450.655 1276.41 448.816 1274.05 447.49C1271.73 446.131 1269.03 445.452 1265.95 445.452C1262.73 445.452 1259.88 446.197 1257.4 447.689C1254.95 449.147 1253.02 451.119 1251.63 453.605C1250.24 456.058 1249.53 458.792 1249.49 461.808V474.287C1249.49 478.065 1250.19 481.33 1251.58 484.081C1253.01 486.832 1255.01 488.953 1257.6 490.445C1260.18 491.936 1263.25 492.682 1266.79 492.682C1269.15 492.682 1271.3 492.35 1273.26 491.688C1275.21 491.025 1276.89 490.03 1278.28 488.705C1279.67 487.379 1280.73 485.755 1281.46 483.832L1301.05 485.125C1300.05 489.831 1298.02 493.941 1294.93 497.455C1291.88 500.935 1287.94 503.652 1283.1 505.608C1278.3 507.53 1272.74 508.491 1266.45 508.491Z" fill="#E2E8F0"/>
<path d="M500.975 628V555.273H544.583V563.085H509.782V587.659H541.316V595.472H509.782V628H500.975ZM589.487 605.699V573.455H597.868V628H589.487V618.767H588.919C587.64 621.537 585.652 623.893 582.953 625.834C580.254 627.751 576.845 628.71 572.725 628.71C569.316 628.71 566.286 627.964 563.635 626.473C560.983 624.958 558.9 622.685 557.385 619.655C555.869 616.601 555.112 612.754 555.112 608.114V573.455H563.493V607.545C563.493 611.523 564.605 614.695 566.831 617.062C569.08 619.43 571.944 620.614 575.424 620.614C577.508 620.614 579.627 620.081 581.781 619.016C583.959 617.95 585.782 616.317 587.25 614.115C588.741 611.913 589.487 609.108 589.487 605.699ZM621.598 555.273V628H613.217V555.273H621.598ZM645.328 555.273V628H636.948V555.273H645.328ZM729.712 573.455C729.286 569.856 727.558 567.062 724.528 565.074C721.497 563.085 717.781 562.091 713.377 562.091C710.157 562.091 707.34 562.612 704.925 563.653C702.534 564.695 700.664 566.127 699.315 567.95C697.989 569.773 697.326 571.845 697.326 574.165C697.326 576.106 697.788 577.775 698.711 579.172C699.658 580.545 700.865 581.693 702.333 582.616C703.801 583.516 705.34 584.262 706.95 584.854C708.559 585.422 710.039 585.884 711.388 586.239L718.775 588.227C720.669 588.724 722.776 589.411 725.096 590.287C727.44 591.163 729.677 592.358 731.808 593.874C733.962 595.365 735.737 597.283 737.134 599.626C738.531 601.97 739.229 604.847 739.229 608.256C739.229 612.186 738.2 615.737 736.14 618.909C734.104 622.081 731.121 624.603 727.191 626.473C723.285 628.343 718.538 629.278 712.951 629.278C707.743 629.278 703.233 628.438 699.421 626.757C695.633 625.076 692.65 622.732 690.472 619.726C688.318 616.719 687.099 613.227 686.815 609.25H695.906C696.142 611.996 697.066 614.269 698.675 616.068C700.309 617.844 702.369 619.17 704.854 620.045C707.364 620.898 710.063 621.324 712.951 621.324C716.313 621.324 719.331 620.779 722.006 619.69C724.682 618.578 726.8 617.039 728.363 615.074C729.925 613.085 730.707 610.765 730.707 608.114C730.707 605.699 730.032 603.734 728.683 602.219C727.333 600.704 725.558 599.473 723.356 598.526C721.154 597.579 718.775 596.75 716.218 596.04L707.269 593.483C701.587 591.849 697.089 589.518 693.775 586.487C690.46 583.457 688.803 579.491 688.803 574.591C688.803 570.519 689.904 566.968 692.106 563.938C694.331 560.884 697.314 558.516 701.055 556.835C704.819 555.131 709.021 554.278 713.661 554.278C718.349 554.278 722.515 555.119 726.161 556.8C729.807 558.457 732.695 560.73 734.826 563.618C736.98 566.506 738.117 569.785 738.235 573.455H729.712ZM776.294 573.455V580.557H748.027V573.455H776.294ZM756.266 560.386H764.647V612.375C764.647 614.742 764.99 616.518 765.676 617.702C766.387 618.862 767.286 619.643 768.375 620.045C769.488 620.424 770.66 620.614 771.891 620.614C772.814 620.614 773.572 620.566 774.164 620.472C774.756 620.353 775.229 620.259 775.584 620.188L777.289 627.716C776.721 627.929 775.927 628.142 774.909 628.355C773.891 628.592 772.601 628.71 771.039 628.71C768.671 628.71 766.351 628.201 764.078 627.183C761.829 626.165 759.959 624.615 758.468 622.531C757 620.448 756.266 617.82 756.266 614.648V560.386ZM804.952 629.278C801.496 629.278 798.359 628.627 795.542 627.325C792.724 626 790.487 624.094 788.83 621.608C787.173 619.098 786.344 616.068 786.344 612.517C786.344 609.392 786.96 606.859 788.191 604.918C789.422 602.953 791.067 601.414 793.127 600.301C795.186 599.188 797.459 598.36 799.945 597.815C802.454 597.247 804.976 596.797 807.509 596.466C810.823 596.04 813.51 595.72 815.57 595.507C817.653 595.27 819.168 594.88 820.115 594.335C821.086 593.791 821.571 592.844 821.571 591.494V591.21C821.571 587.706 820.613 584.984 818.695 583.043C816.801 581.101 813.925 580.131 810.066 580.131C806.065 580.131 802.928 581.007 800.655 582.759C798.382 584.51 796.784 586.381 795.861 588.369L787.907 585.528C789.327 582.214 791.221 579.634 793.588 577.787C795.98 575.917 798.584 574.615 801.401 573.881C804.242 573.123 807.035 572.744 809.782 572.744C811.533 572.744 813.546 572.957 815.819 573.384C818.115 573.786 820.328 574.626 822.459 575.905C824.614 577.183 826.401 579.113 827.821 581.693C829.242 584.274 829.952 587.73 829.952 592.062V628H821.571V620.614H821.145C820.577 621.797 819.63 623.064 818.304 624.413C816.979 625.763 815.215 626.911 813.013 627.858C810.811 628.805 808.124 629.278 804.952 629.278ZM806.23 621.75C809.545 621.75 812.338 621.099 814.611 619.797C816.908 618.495 818.636 616.814 819.796 614.754C820.98 612.695 821.571 610.528 821.571 608.256V600.585C821.216 601.011 820.435 601.402 819.228 601.757C818.044 602.089 816.671 602.384 815.108 602.645C813.569 602.882 812.066 603.095 810.598 603.284C809.154 603.45 807.982 603.592 807.083 603.71C804.905 603.994 802.869 604.456 800.975 605.095C799.105 605.711 797.589 606.646 796.429 607.901C795.293 609.132 794.725 610.812 794.725 612.943C794.725 615.855 795.802 618.057 797.956 619.548C800.134 621.016 802.892 621.75 806.23 621.75ZM867.408 629.136C862.294 629.136 857.891 627.929 854.197 625.514C850.504 623.099 847.663 619.773 845.675 615.536C843.686 611.298 842.692 606.456 842.692 601.011C842.692 595.472 843.71 590.583 845.746 586.345C847.805 582.084 850.67 578.758 854.339 576.366C858.033 573.952 862.341 572.744 867.266 572.744C871.101 572.744 874.557 573.455 877.635 574.875C880.713 576.295 883.234 578.284 885.199 580.841C887.164 583.398 888.383 586.381 888.857 589.79H880.476C879.837 587.304 878.416 585.102 876.214 583.185C874.036 581.243 871.101 580.273 867.408 580.273C864.141 580.273 861.276 581.125 858.814 582.83C856.375 584.51 854.47 586.89 853.097 589.967C851.747 593.021 851.072 596.608 851.072 600.727C851.072 604.941 851.735 608.611 853.061 611.736C854.411 614.861 856.304 617.287 858.743 619.016C861.205 620.744 864.093 621.608 867.408 621.608C869.586 621.608 871.562 621.229 873.338 620.472C875.114 619.714 876.617 618.625 877.848 617.205C879.079 615.784 879.955 614.08 880.476 612.091H888.857C888.383 615.311 887.211 618.211 885.341 620.791C883.494 623.348 881.044 625.384 877.99 626.899C874.96 628.391 871.432 629.136 867.408 629.136ZM908.92 608.114L908.778 597.744H910.483L934.347 573.455H944.716L919.29 599.165H918.58L908.92 608.114ZM901.108 628V555.273H909.489V628H901.108ZM935.767 628L914.46 601.011L920.426 595.188L946.42 628H935.767Z" fill="#46ECD5"/>
</g>
<defs>
<clipPath id="clip0_3_2">
<rect width="1440" height="1024" fill="white"/>
</clipPath>
</defs>
</svg>
